# xmcd
#
# Track frame offsets:
#	150
#	13537
#	24845
#	38270
#	49600
#	60282
#	75750
#	87080
#	98250
#	115605
#	127140
#	138890
#	156640
#	168732
#	182955
#
# Disc length: 2575 seconds
#
# Revision: 1
# Processed by: cddbd v1.4PL0 Copyright (c) Steve Scherf et al.
# Submitted via: MusicWizard 6.0.2
#
DISCID=a40a0d0f
DTITLE=Ray Anthony - In The Miller Mood - Vol II
DYEAR=1993
DGENRE=Big Band
TTITLE0=The Music Of The Night
TTITLE1=When I Fall In Love
TTITLE2=Cook's Tour
TTITLE3=My Foolish Heart
TTITLE4=The Wind Beneath My Wings
TTITLE5=Mr Anthonys Swing
TTITLE6=Pretend
TTITLE7=How Do You Keep The Music Playing
TTITLE8=Drive In
TTITLE9=Darn That Dream
TTITLE10=Love Theme From The Winds Of War
TTITLE11=When Your Old Wedding Ring Was New
TTITLE12=Saddle Shoe Shuffle
TTITLE13=Rollin Home
TTITLE14=Air Express
EXTD=YEAR: 1993
EXTT0=
EXTT1=
EXTT2=
EXTT3=
EXTT4=
EXTT5=
EXTT6=
EXTT7=
EXTT8=
EXTT9=
EXTT10=
EXTT11=
EXTT12=
EXTT13=
EXTT14=
PLAYORDER=
